# xmcd
#
# Track frame offsets: 
#        150
#        14925
#        39525
#        63885
#        77247
#        106863
#        120887
#        140111
#        158335
#        183014
#        201600
#        226535
#        243489
#        269100
#        286321
#        301176
#
# Disc length: 4361 seconds
#
# Revision: 0
# Processed by: cddbd v1.5.2PL0 Copyright (c) Steve Scherf et al.
# Submitted via: ExactAudioCopy v0.95b4
#
DISCID=d8110710
DTITLE=Various Artist - Festival Mundial 4
DYEAR=1900
DGENRE=
TTITLE0=Sem Palavras - Medicamento 3:17 Various Artists Festival Mundi
TTITLE0=al 4 Unclassifiable
TTITLE1=Cökertme - Nada 5:28 Various Artists Festival Mundial 4 Unclas
TTITLE1=sifiable
TTITLE2=Gné Mufo - Les Sofas De Bamako Featuring Dick De Graaf 5:24 Va
TTITLE2=rious Artists Festival Mundial 4 Unclassifiable
TTITLE3=Canta La Percusion - Vocal Sampling 2:58 Various Artists Festi
TTITLE3=val Mundial 4 Unclassifiable
TTITLE4=Eske Meche (Until When) - Gigi 6:34 Various Artists Festival M
TTITLE4=undial 4 Unclassifiable
TTITLE5=Don Quijote - Segreles 3:06 Various Artists Festival Mundial 4
TTITLE5=Unclassifiable
TTITLE6=Ayowei - Talking Drums Of Africa 4:16 Various Artists Festival
TTITLE6=Mundial 4 Unclassifiable
TTITLE7=Dinsdagmorgen - Oleg Fateev Quartet 4:02 Various Artists Festi
TTITLE7=val Mundial 4 Unclassifiable
TTITLE8=Kholwa Njalo (Always Believe) - Pili-Pili Meets Phikelela Sakh
TTITLE8=ula Zulu Choir 5:29 Various Artists Festival Mundial 4 Unclass
TTITLE8=ifiable
TTITLE9=For The Poor - Rohan Lee and The Recipe 4:07 Various Artists Fes
TTITLE9=tival Mundial 4 Unclassifiable
TTITLE10=Yaye - Voodoo Brass Band 5:32 Various Artists Festival Mundia
TTITLE10=l 4 Unclassifiable
TTITLE11=Molienda Café - Maria Rivas 3:46 Various Artists Festival Mun
TTITLE11=dial 4 Unclassifiable
TTITLE12=Enegenagnalen - Africa Unite 5:41 Various Artists Festival Mu
TTITLE12=ndial 4 Unclassifiable
TTITLE13=Kotomisi - Fra Fra Sound and Kaseko Revisited 3:49 Various Arti
TTITLE13=sts Festival Mundial 4 Unclassifiable
TTITLE14=Pate Pate - Te Vaka 3:18 Various Artists Festival Mundial 4 U
TTITLE14=nclassifiable
TTITLE15=What Will Tomorrow Bring? - Femi Kuti and The Positive Force 5:
TTITLE15=46 Various Artists Festival Mundial 4 Unclassifiable
EXTD=
EXTT0=
EXTT1=
EXTT2=
EXTT3=
EXTT4=
EXTT5=
EXTT6=
EXTT7=
EXTT8=
EXTT9=
EXTT10=
EXTT11=
EXTT12=
EXTT13=
EXTT14=
EXTT15=
PLAYORDER=
